<svg width="598" height="578" viewBox="0 0 598 578" fill="none" xmlns="http://www.w3.org/2000/svg">
<path fill-rule="evenodd" clip-rule="evenodd" d="M269.328 48.1077C317.495 55.0941 368.664 29.7888 412.35 51.2459C457.637 73.4894 479.194 123.24 507.429 165.055C541.317 215.243 613.013 262.948 594.152 320.494C574.041 381.857 480.931 374.893 427.01 410.423C391.702 433.688 368.601 468.719 333.477 492.26C284.321 525.206 238.548 588.151 180.745 575.478C124.021 563.042 112.566 485.707 81.0662 436.922C54.3956 395.616 21.9868 358.764 10.0227 311.074C-2.85021 259.762 -3.98177 206.468 10.4855 155.582C26.5994 98.9045 42.4834 28.087 96.9026 5.49164C152.712 -17.6809 209.526 39.4335 269.328 48.1077Z" fill="#2B2A4C" fill-opacity="0.2"/>
</svg>
