<svg width="663" height="561" viewBox="0 0 663 561" fill="none" xmlns="http://www.w3.org/2000/svg">
<path fill-rule="evenodd" clip-rule="evenodd" d="M340.85 57.8412C383.216 42.4012 428.16 -20.3595 464.244 6.68113C504.976 37.2051 445.076 114.911 473.422 157.188C498.272 194.251 564.471 173.788 596.864 204.478C632.955 238.672 661.714 286.615 662.5 336.326C663.288 386.112 644.236 445.61 601.071 470.431C553.413 497.836 495.013 466.694 443 484.5C399.702 499.322 386.142 552.951 340.85 559.513C297.753 565.757 259.507 526.474 228.789 495.608C201.587 468.274 171.877 493.076 145.176 465.252C114.786 433.586 27.1925 452.068 4.50002 414.5C-17.7674 377.636 57.299 241.417 58.0126 198.355C58.8608 147.167 26.1975 73.1045 70.3541 47.198C124.927 15.1802 191.079 80.7053 254.302 83.193C284.722 84.3899 312.247 68.2653 340.85 57.8412Z" fill="#2B2A4C" fill-opacity="0.2"/>
</svg>
