<svg width="30" height="30" viewBox="0 0 30 30" fill="none" xmlns="http://www.w3.org/2000/svg">
<g opacity="0.5">
<path fill-rule="evenodd" clip-rule="evenodd" d="M14.318 0C22.2071 0 28.6241 6.32381 28.6241 14.0983C28.6241 17.7662 27.1958 21.1116 24.8583 23.6223L29.4577 28.1454C29.8881 28.5696 29.8896 29.2559 29.4592 29.68C29.2447 29.8943 28.9611 30 28.6791 30C28.3985 30 28.1164 29.8943 27.9005 29.6829L23.2455 25.1085C20.7969 27.041 17.6921 28.198 14.318 28.198C6.42894 28.198 0.010437 21.8727 0.010437 14.0983C0.010437 6.32381 6.42894 0 14.318 0ZM14.318 2.17164C7.64389 2.17164 2.21409 7.5211 2.21409 14.0983C2.21409 20.6754 7.64389 26.0263 14.318 26.0263C20.9907 26.0263 26.4205 20.6754 26.4205 14.0983C26.4205 7.5211 20.9907 2.17164 14.318 2.17164Z" fill="#2B2A4C"/>
</g>
</svg>
